<?xml version="1.0" encoding="utf-8"?><svg xmlns="http://www.w3.org/2000/svg" width="138.495" height="135.64" viewBox="0 0 138.495 135.64">
  <g id="_07" data-name="07" transform="translate(-519.041 -858.071)">
    <g id="Group_48" data-name="Group 48" transform="translate(520.041 859.071)">
      <path id="Path_247" data-name="Path 247" d="M532.534,882.951V994.023H661.278" transform="translate(-524.783 -868.135)" fill="none" stroke="#cbb149" stroke-linecap="round" stroke-linejoin="round" stroke-width="2"/>
      <path id="Path_248" data-name="Path 248" d="M727.023,1049.482l7.753,7.751-7.753,7.752" transform="translate(-598.605 -931.345)" fill="none" stroke="#cbb149" stroke-linecap="round" stroke-linejoin="round" stroke-width="2"/>
      <path id="Path_249" data-name="Path 249" d="M520.041,890.7l7.751-7.752,7.753,7.752" transform="translate(-520.041 -868.135)" fill="none" stroke="#cbb149" stroke-linecap="round" stroke-linejoin="round" stroke-width="2"/>
      <rect id="Rectangle_623" data-name="Rectangle 623" width="12.95" height="64.282" transform="translate(20.676 49.197)" stroke-width="2" stroke="#cbb149" stroke-linecap="round" stroke-linejoin="round" fill="none"/>
      <rect id="Rectangle_624" data-name="Rectangle 624" width="12.952" height="34.292" transform="translate(48.337 79.188)" stroke-width="2" stroke="#cbb149" stroke-linecap="round" stroke-linejoin="round" fill="none"/>
      <rect id="Rectangle_625" data-name="Rectangle 625" width="12.949" height="21.671" transform="translate(76.003 91.809)" stroke-width="2" stroke="#cbb149" stroke-linecap="round" stroke-linejoin="round" fill="none"/>
      <rect id="Rectangle_626" data-name="Rectangle 626" width="12.949" height="15.359" transform="translate(103.665 98.121)" stroke-width="2" stroke="#cbb149" stroke-linecap="round" stroke-linejoin="round" fill="none"/>
      <path id="Path_250" data-name="Path 250" d="M571.942,889.8s8.682,66.426,96.721,66.426" transform="translate(-539.741 -870.736)" fill="none" stroke="#cbb149" stroke-linecap="round" stroke-linejoin="round" stroke-width="2"/>
      <path id="Path_251" data-name="Path 251" d="M712.073,885.608a26.538,26.538,0,0,0-26.538-26.537v26.537Z" transform="translate(-582.857 -859.071)" fill="none" stroke="#cbb149" stroke-linecap="round" stroke-linejoin="round" stroke-width="2"/>
      <path id="Path_252" data-name="Path 252" d="M680.206,901.241a26.538,26.538,0,1,1-26.538-26.536v26.536Z" transform="translate(-560.688 -865.005)" fill="none" stroke="#cbb149" stroke-linecap="round" stroke-linejoin="round" stroke-width="2"/>
    </g>
  </g>
</svg>
