<svg xmlns="http://www.w3.org/2000/svg" width="81.016" height="40.508" viewBox="0 0 81.016 40.508"><defs><style>.a{fill:#707070;}</style></defs><g transform="translate(0 0)"><path class="a" d="M538.3,738.165a7.117,7.117,0,0,0-6.961,6.4,5.781,5.781,0,0,0,5.857,6.4,7.119,7.119,0,0,0,6.961-6.4A5.781,5.781,0,0,0,538.3,738.165Zm-.825,9.554a2.854,2.854,0,0,1-2.892-3.157,3.513,3.513,0,0,1,3.437-3.158,2.854,2.854,0,0,1,2.892,3.158A3.516,3.516,0,0,1,537.476,747.719Z" transform="translate(-510.721 -710.448)"/><path class="a" d="M229.807,242.679l-7-7.644a5.439,5.439,0,0,0-3.517-1.508h-8.544l.553-6.4A1.934,1.934,0,0,0,209.348,225H166.624a2.38,2.38,0,0,0-2.32,2.132l-.034.395h-5.517a1.405,1.405,0,0,0-1.375,1.263,1.142,1.142,0,0,0,1.157,1.263h18.493a1.143,1.143,0,0,1,1.157,1.263,1.407,1.407,0,0,1-1.375,1.263H153.689a1.405,1.405,0,0,0-1.375,1.263,1.141,1.141,0,0,0,1.157,1.263h19.956a1.142,1.142,0,0,1,1.156,1.263,1.406,1.406,0,0,1-1.375,1.263H156.221a1.405,1.405,0,0,0-1.375,1.263A1.142,1.142,0,0,0,156,240.159h22.05a1.142,1.142,0,0,1,1.157,1.263,1.407,1.407,0,0,1-1.375,1.263H151.38a1.406,1.406,0,0,0-1.375,1.263,1.142,1.142,0,0,0,1.156,1.263h18.86a1.142,1.142,0,0,1,1.157,1.263,1.406,1.406,0,0,1-1.375,1.263h-7.279l-.8,9.238a1.932,1.932,0,0,0,1.952,2.133h5.341a8.906,8.906,0,0,1,8.7-7.995,7.233,7.233,0,0,1,7.32,7.995h25.634a8.909,8.909,0,0,1,8.7-7.995,7.233,7.233,0,0,1,7.32,7.995h1.068a2.38,2.38,0,0,0,2.32-2.133L231,246.319A5.468,5.468,0,0,0,229.807,242.679Zm-17.751.442.645-7.461h6.409a3.582,3.582,0,0,1,2.06.883l6.023,6.579H212.056Z" transform="translate(-150 -224.999)"/><path class="a" d="M1309.554,738.165a7.118,7.118,0,0,0-6.961,6.4,5.781,5.781,0,0,0,5.856,6.4,7.118,7.118,0,0,0,6.961-6.4A5.781,5.781,0,0,0,1309.554,738.165Zm-.826,9.554a2.852,2.852,0,0,1-2.89-3.157,3.514,3.514,0,0,1,3.437-3.158,2.854,2.854,0,0,1,2.892,3.158A3.518,3.518,0,0,1,1308.728,747.719Z" transform="translate(-1240.317 -710.448)"/></g></svg>