<svg id="Layer_1" data-name="Layer 1" xmlns="http://www.w3.org/2000/svg" viewBox="0 0 694 102"><defs><style></style></defs><title>icm-text-logo</title><path  d="M1.65,12.73A9,9,0,0,1,4.41,6a10.36,10.36,0,0,1,7.51-2.66A10.39,10.39,0,0,1,19.39,6a9,9,0,0,1,2.79,6.78,9,9,0,0,1-2.82,6.84,10.37,10.37,0,0,1-7.44,2.66,10.38,10.38,0,0,1-7.45-2.66A9,9,0,0,1,1.65,12.73ZM21.1,99H2.73V30.47H21.1Z"/><path class="cls-1" d="M107.34,68.3q-1.07,14.88-11,23.44t-26.14,8.55q-17.73,0-27.91-11.94T32.13,55.56V49.92a55.38,55.38,0,0,1,4.69-23.44,35.26,35.26,0,0,1,13.4-15.56A37.57,37.57,0,0,1,70.47,5.51q16,0,25.72,8.55t11.28,24h-19q-.69-8.94-5-13t-13-4q-9.51,0-14.23,6.82T51.4,49v7q0,15,4.53,21.86t14.28,6.91q8.82,0,13.15-4c2.89-2.68,4.55-6.84,5-12.45Z"/><path class="cls-1" d="M135.48,99H117.11V1.71h18.37Z"/><path class="cls-1" d="M179.65,100.29q-15.08,0-24.55-9.25T145.62,66.4V64.62a41.32,41.32,0,0,1,4-18.47,29.28,29.28,0,0,1,11.31-12.54,31.67,31.67,0,0,1,16.69-4.41q14.07,0,22.15,8.88t8.08,25.15V70.7H164.19a17.07,17.07,0,0,0,5.35,10.78,16.2,16.2,0,0,0,11.31,4q10.59,0,16.54-7.67l9,10.08A27.49,27.49,0,0,1,195.24,97,36.54,36.54,0,0,1,179.65,100.29ZM177.56,44a11.45,11.45,0,0,0-8.84,3.69q-3.39,3.69-4.34,10.56h25.47V56.76q-.12-6.1-3.29-9.45T177.56,44Z"/><path class="cls-1" d="M255.5,99a20.23,20.23,0,0,1-1.84-6.15q-6.65,7.41-17.3,7.41-10.06,0-16.69-5.82a18.74,18.74,0,0,1-6.62-14.7q0-10.9,8.08-16.73t23.34-5.89h8.43V53.22a11.26,11.26,0,0,0-2.44-7.6q-2.43-2.86-7.7-2.86A10.89,10.89,0,0,0,235.51,45a7.55,7.55,0,0,0-2.63,6.08H214.57a18.38,18.38,0,0,1,3.67-11,24.31,24.31,0,0,1,10.39-7.95,37.93,37.93,0,0,1,15.08-2.89q12.67,0,20.12,6.37t7.45,17.9V83.19Q271.34,92.94,274,98V99ZM240.36,86.29a15.79,15.79,0,0,0,7.47-1.8,11.91,11.91,0,0,0,5.07-4.85V67.85h-6.84q-13.76,0-14.64,9.51l-.06,1.07a7.29,7.29,0,0,0,2.41,5.64A9.34,9.34,0,0,0,240.36,86.29Z"/><path class="cls-1" d="M299.73,30.47l.57,7.92q7.35-9.18,19.71-9.19,10.89,0,16.22,6.4t5.44,19.14V99H323.36V55.18q0-5.82-2.53-8.46t-8.43-2.63a12.59,12.59,0,0,0-11.59,6.59V99H282.5V30.47Z"/><path class="cls-1" d="M400.11,30.47l.57,7.67q7.27-8.94,19.7-8.94,13.25,0,18.19,10.46,7.21-10.45,20.59-10.46,11.14,0,16.6,6.5t5.45,19.54V99H462.83V55.31q0-5.84-2.28-8.52t-8-2.7q-8.25,0-11.41,7.86L441.16,99H422.85V55.37q0-6-2.34-8.61c-1.56-1.78-4.23-2.67-8-2.67q-7.78,0-11.27,6.47V99H382.93V30.47Z"/><path class="cls-1" d="M492.68,12.73A9,9,0,0,1,495.44,6a11.88,11.88,0,0,1,15,0,9,9,0,0,1,2.79,6.78,9,9,0,0,1-2.82,6.84,11.75,11.75,0,0,1-14.89,0A9,9,0,0,1,492.68,12.73ZM512.13,99H493.76V30.47h18.37Z"/><path class="cls-1" d="M541.6,30.47l.57,7.92q7.35-9.18,19.71-9.19,10.89,0,16.22,6.4t5.45,19.14V99H565.24V55.18q0-5.82-2.54-8.46t-8.42-2.63a12.61,12.61,0,0,0-11.6,6.59V99H524.37V30.47Z"/><path class="cls-1" d="M594.83,12.73A9,9,0,0,1,597.58,6a11.89,11.89,0,0,1,15,0,9,9,0,0,1,2.79,6.78,9,9,0,0,1-2.82,6.84,11.75,11.75,0,0,1-14.89,0A9,9,0,0,1,594.83,12.73ZM614.28,99H595.91V30.47h18.37Z"/><path class="cls-1" d="M653,13.62h-8.17V40.93h-9V13.62h-8.62V6.77H653Zm31.24,5.19-7,22.31h-4.57l-7-22.37V41.12H657.5V6.77h10l7.41,23.32,8-23.32h9.44V41.12h-8.11Z"/></svg>
