<?xml version="1.0" encoding="utf-8"?>  <svg xmlns="http://www.w3.org/2000/svg" width="180.693" height="134.365" viewBox="0 0 180.693 134.365">
  <g id="_10" data-name="10" transform="translate(-1628.918 -884.289)">
    <g id="Group_43" data-name="Group 43" transform="translate(1629.918 885.289)">
      <g id="Group_40" data-name="Group 40" transform="translate(46.729 70.542)">
        <path id="Path_220" data-name="Path 220" d="M1712.858,991.217l-14.426,14.144a6.523,6.523,0,0,1-9.1,0,6.221,6.221,0,0,1,0-8.919l23.526-24.3" transform="translate(-1687.449 -972.138)" fill="none" stroke="#cbb149" stroke-linecap="round" stroke-linejoin="round" stroke-width="2"/>
        <path id="Path_221" data-name="Path 221" d="M1724.059,1004.546l-14.429,14.144a6.533,6.533,0,0,1-9.094,0,6.223,6.223,0,0,1,0-8.919l14.426-14.144" transform="translate(-1689.553 -976.548)" fill="none" stroke="#cbb149" stroke-linecap="round" stroke-linejoin="round" stroke-width="2"/>
        <path id="Path_222" data-name="Path 222" d="M1726.162,1006.612l-14.423,14.138a6.207,6.207,0,0,0,0,8.916,6.508,6.508,0,0,0,9.094,0l12.684-12.431" transform="translate(-1691.655 -978.611)" fill="none" stroke="#cbb149" stroke-linecap="round" stroke-linejoin="round" stroke-width="2"/>
        <line id="Line_10" data-name="Line 10" x1="0.042" y2="0.042" transform="translate(43.558 36.917)" fill="none" stroke="#cbb149" stroke-linecap="round" stroke-linejoin="round" stroke-width="2"/>
        <path id="Path_223" data-name="Path 223" d="M1740.5,1032.735l-8.464,8.305a6.524,6.524,0,0,1-9.1,0,6.216,6.216,0,0,1,0-8.919l12.684-12.431" transform="translate(-1693.758 -981.066)" fill="none" stroke="#cbb149" stroke-linecap="round" stroke-linejoin="round" stroke-width="2"/>
        <line id="Line_11" data-name="Line 11" x1="0.042" y2="0.042" transform="translate(43.558 36.917)" fill="none" stroke="#cbb149" stroke-linecap="round" stroke-linejoin="round" stroke-width="2"/>
      </g>
      <g id="Group_41" data-name="Group 41" transform="translate(87.46 82.553)">
        <path id="Path_224" data-name="Path 224" d="M1780.917,1003.255l-5.019-6.05a6.192,6.192,0,0,1-1.4-4.622,6.265,6.265,0,0,1,2.337-4.249,6.526,6.526,0,0,1,9.048.918l5.019,6.042" transform="translate(-1744.517 -986.926)" fill="none" stroke="#cbb149" stroke-linecap="round" stroke-linejoin="round" stroke-width="2"/>
        <path id="Path_225" data-name="Path 225" d="M1768.627,1013.057l-5.012-6.046a6.228,6.228,0,0,1,.927-8.874,6.528,6.528,0,0,1,8.832.662l.116.127.1.119,5.019,6.05" transform="translate(-1742.21 -988.765)" fill="none" stroke="#cbb149" stroke-linecap="round" stroke-linejoin="round" stroke-width="2"/>
        <path id="Path_226" data-name="Path 226" d="M1756.341,1022.852l-5.016-6.05a6.216,6.216,0,0,1,.934-8.87,6.515,6.515,0,0,1,9.048.918l5.012,6.046" transform="translate(-1739.902 -990.604)" fill="none" stroke="#cbb149" stroke-linecap="round" stroke-linejoin="round" stroke-width="2"/>
        <path id="Path_227" data-name="Path 227" d="M1744.057,1032.648l-5.018-6.05a6.22,6.22,0,0,1,.931-8.871,6.518,6.518,0,0,1,9.048.915l5.015,6.05" transform="translate(-1737.595 -992.443)" fill="none" stroke="#cbb149" stroke-linecap="round" stroke-linejoin="round" stroke-width="2"/>
      </g>
      <g id="Group_42" data-name="Group 42" transform="translate(88.904 84.881)">
        <path id="Path_228" data-name="Path 228" d="M1749.352,1019.18l5.016,6.05a6.18,6.18,0,0,1,1.408,4.622,6.278,6.278,0,0,1-2.337,4.246,6.526,6.526,0,0,1-9.048-.911l-5.018-6.05" transform="translate(-1739.373 -995.309)" fill="none" stroke="#cbb149" stroke-linecap="round" stroke-linejoin="round" stroke-width="2"/>
        <path id="Path_229" data-name="Path 229" d="M1761.641,1009.389l5.012,6.046a6.179,6.179,0,0,1,1.409,4.618,6.271,6.271,0,0,1-2.34,4.25,6.522,6.522,0,0,1-9.048-.911l-5.015-6.05" transform="translate(-1741.68 -993.471)" fill="none" stroke="#cbb149" stroke-linecap="round" stroke-linejoin="round" stroke-width="2"/>
        <path id="Path_230" data-name="Path 230" d="M1773.708,999.279l.116.127.1.119,5.019,6.05a6.223,6.223,0,0,1-.931,8.874,6.528,6.528,0,0,1-9.052-.911l-5.012-6.046" transform="translate(-1743.987 -991.573)" fill="none" stroke="#cbb149" stroke-linecap="round" stroke-linejoin="round" stroke-width="2"/>
        <path id="Path_231" data-name="Path 231" d="M1786.189,989.791l5.019,6.042a6.221,6.221,0,0,1-.934,8.875,6.518,6.518,0,0,1-9.048-.915l-5.019-6.05-.1-.119" transform="translate(-1746.27 -989.791)" fill="none" stroke="#cbb149" stroke-linecap="round" stroke-linejoin="round" stroke-width="2"/>
      </g>
      <line id="Line_12" data-name="Line 12" x1="15.68" y1="13.644" transform="translate(32.933 81.203)" fill="none" stroke="#cbb149" stroke-linecap="round" stroke-linejoin="round" stroke-width="2"/>
      <path id="Path_232" data-name="Path 232" d="M1715.536,967.213l13.592-2.343a7.411,7.411,0,0,1,7.937,4.046l3.212,6.686a6.449,6.449,0,0,0,5.823,3.619,6.612,6.612,0,0,0,2.731-.595,6.259,6.259,0,0,0,3.083-8.392l-5.959-12.426a11.754,11.754,0,0,0-10.564-6.56c-.3,0-.6.01-.9.039l-14.368-2.356-18.413-3.025" transform="translate(-1643.397 -896.671)" fill="none" stroke="#cbb149" stroke-linecap="round" stroke-linejoin="round" stroke-width="2"/>
      <path id="Path_233" data-name="Path 233" d="M1725.861,948.268l12.674-5.229a20.632,20.632,0,0,1,11.715-1.322l17.638,3.639" transform="translate(-1647.932 -895.819)" fill="none" stroke="#cbb149" stroke-linecap="round" stroke-linejoin="round" stroke-width="2"/>
      <line id="Line_13" data-name="Line 13" x1="11.912" y2="9.721" transform="translate(133.841 81.203)" fill="none" stroke="#cbb149" stroke-linecap="round" stroke-linejoin="round" stroke-width="2"/>
      <path id="Path_234" data-name="Path 234" d="M1815.62,970.929l-10.225,7.478-2.747-3.474-29.12-36.665,11.647-8.04" transform="translate(-1656.882 -893.727)" fill="none" stroke="#cbb149" stroke-linecap="round" stroke-linejoin="round" stroke-width="2"/>
      <path id="Path_235" data-name="Path 235" d="M1654.485,970.929l10.225,7.478,2.747-3.474,25.381-31.967,3.739-4.7-11.647-8.04" transform="translate(-1634.531 -893.727)" fill="none" stroke="#cbb149" stroke-linecap="round" stroke-linejoin="round" stroke-width="2"/>
      <path id="Path_236" data-name="Path 236" d="M1837.679,961.4l-13.237,9.927-39.71-52.946,52.946-33.091" transform="translate(-1658.986 -885.289)" fill="none" stroke="#cbb149" stroke-linecap="round" stroke-linejoin="round" stroke-width="2"/>
      <path id="Path_237" data-name="Path 237" d="M1629.918,961.4l13.236,9.927,39.71-52.946-52.946-33.091" transform="translate(-1629.918 -885.289)" fill="none" stroke="#cbb149" stroke-linecap="round" stroke-linejoin="round" stroke-width="2"/>
    </g>
  </g>
</svg>
