<?xml version="1.0" encoding="utf-8"?>
<!-- Generator: Adobe Illustrator 22.1.0, SVG Export Plug-In . SVG Version: 6.00 Build 0)  -->
<svg version="1.1" id="Layer_1" xmlns="http://www.w3.org/2000/svg" xmlns:xlink="http://www.w3.org/1999/xlink" x="0px" y="0px"
	 viewBox="0 0 419 312" style="enable-background:new 0 0 419 312;" xml:space="preserve">
<style type="text/css">
	.st0{fill:#E50072;}
</style>
<rect x="2.8" y="168.7" class="st0" width="413.6" height="18.3"/>
<path d="M46.1,44.2H22.7V20.4h23.7c6.5,0,11.8,5.3,11.8,11.8c0,0,0,0,0,0.1c0,6.6-5.4,12-12,12C46.2,44.2,46.2,44.2,46.1,44.2
	 M78.9,31.7C78.9,14.9,64.6,2,49.4,2H2.8v100.3h20V63.3h15.1l21.8,39.1h24L58.8,60.7C79.7,52.6,78.9,31.6,78.9,31.7"/>
<polygon points="126.7,102.3 146.8,102.3 146.8,35 190.5,102.3 212.5,102.3 212.5,2 192.3,2 192.3,69.3 148.8,2 126.7,2 "/>
<path d="M287.3,2h-21.1v100.3h21.1V2z"/>
<path d="M360.9,83.6v-25h19.7c5.9,0,10,1,12.4,3.1c2.3,2.1,3.5,5.1,3.5,9c0,1.8-0.3,3.6-0.8,5.3c-0.6,1.6-1.6,3-2.9,4.1
	c-1.6,1.3-3.5,2.2-5.5,2.6c-2.8,0.7-5.7,1-8.6,0.9L360.9,83.6z M360.9,41.7V20.4h13.9c6.4,0,10.9,0.8,13.6,2.4c2.7,1.6,4,4.3,4,8
	c0,3.5-1,6.2-3.1,8.1c-2.1,1.9-5.9,2.8-11.4,2.8H360.9z M340.7,102.3h38.5c6,0,11.9-0.8,17.7-2.4c20.1-5.7,20.4-23.6,20.4-27.8
	c0-7.9-4.7-18.9-14.2-23.4c6-4.7,9.5-12,9.4-19.6c0-3.2-0.4-19.3-19.9-25C387.5,2.7,382.2,2,376.8,2h-36.1V102.3z"/>
<path d="M27.8,259c-3.3-1.3-6.8-2-10.4-2.2c-4.6,0-7.6,1.8-7.6,5.8c0,2.5,1.5,4.8,3.8,5.7c1.5,0.7,3,1.4,4.5,1.9
	c2.1,0.8,4.1,1.7,6,2.7c1.6,1,3,2.3,4,3.9c1.2,2,1.7,4.4,1.6,6.7c0.1,9.3-7.2,13.5-15.7,13.4c-4.2,0-8.4-1-12.2-2.7v-7.1
	c1.9,1,4,1.8,6.1,2.4c2,0.6,4.1,0.9,6.1,0.9c4.8,0,8-2,8-6.4c0-2.6-1.5-4.9-3.9-6c-1.5-0.8-3-1.4-4.5-2c-2-0.8-4-1.7-5.9-2.8
	c-1.6-1-2.9-2.3-3.9-3.9c-1.2-2-1.7-4.3-1.6-6.6c-0.1-9,7-12.8,15.2-12.7c3.5,0,7.1,0.6,10.4,1.7V259z"/>
<path d="M63.7,278.2v3.3H42.2c0,6.6,3.8,9.9,10.5,9.9c3.4-0.1,6.8-0.9,9.9-2.3v5.7c-3.5,1.6-7.3,2.4-11.2,2.4
	c-9.7,0.1-16.8-6-16.7-17.7c-0.1-10.2,5.7-17.6,15.2-17.5C59,261.9,63.7,268.2,63.7,278.2z M44.5,270c-1.5,1.8-2.3,4-2.2,6.3H57
	c0-5.4-2.4-8.6-6.8-8.6C48,267.5,45.9,268.4,44.5,270z"/>
<path d="M97.7,278.2v3.3H76.3c0,6.6,3.8,9.9,10.5,9.9c3.5-0.1,6.8-0.9,10-2.4v5.7c-3.5,1.6-7.3,2.4-11.2,2.4
	c-9.6,0.1-16.8-6-16.7-17.7c-0.1-10.2,5.7-17.6,15.2-17.5C93,261.9,97.7,268.2,97.7,278.2z M78.5,270c-1.5,1.8-2.3,4-2.2,6.3h14.8
	c0-5.4-2.4-8.6-6.8-8.6C82.1,267.5,80,268.4,78.5,270z"/>
<path d="M132.7,261.9c3.4-0.1,6.8,1.2,9.2,3.6h0.1v-17.7h7.3v48.4h-6.8v-4h-0.1c-2.8,3-6.7,4.7-10.7,4.8c-8.6,0-13.8-6.6-13.8-17.3
	C117.9,268.7,123.5,261.9,132.7,261.9z M134.3,291.1c2.9-0.1,5.6-1.2,7.7-3.1v-17.2c-2.1-1.9-4.8-3-7.7-3.1c-5.3,0-8.7,4.7-8.7,12
	S128.7,291.1,134.3,291.1L134.3,291.1z"/>
<path d="M157.2,256.7v-7.7h7.3v7.7H157.2z M157.2,262.5h7.3v33.7h-7.3V262.5z"/>
<path d="M175.6,258.2c0-7.4,4.1-11.3,11.7-11.3c1.9,0,3.9,0.2,5.7,0.7v5.8c-1.4-0.4-2.9-0.6-4.4-0.6c-3.9,0-5.7,2.2-5.7,6.4v3.2h5.6
	v5.5h-5.6v28.2h-7.3V268h-5.6v-5.5h5.6V258.2z"/>
<path d="M242.4,278.2v3.3h-21.4c0,6.6,3.8,9.9,10.5,9.9c3.4-0.1,6.8-0.9,9.9-2.3v5.7c-3.5,1.6-7.3,2.4-11.2,2.4
	c-9.6,0.1-16.8-6-16.7-17.7c-0.1-10.2,5.7-17.6,15.2-17.5C237.6,261.9,242.4,268.2,242.4,278.2z M223.2,270c-1.5,1.8-2.3,4-2.2,6.3
	h14.8c0-5.4-2.4-8.6-6.8-8.6C226.7,267.5,224.6,268.4,223.2,270z"/>
<path d="M268.2,269c-4.3,0-8.4,1.6-11.7,4.3v22.9h-7.3v-33.7h6.7v6.1h0.2c1.7-2.1,3.7-3.8,6-5.2c1.9-1,4-1.6,6.1-1.5L268.2,269z"/>
<path d="M299.3,278.2v3.3h-21.4c0,6.6,3.8,9.9,10.5,9.9c3.4-0.1,6.8-0.9,9.9-2.3v5.7c-3.5,1.6-7.3,2.4-11.2,2.4
	c-9.6,0.1-16.8-6-16.7-17.7c-0.1-10.2,5.7-17.6,15.2-17.5C294.5,261.9,299.3,268.2,299.3,278.2z M280,270c-1.5,1.8-2.3,4-2.2,6.3
	h14.8c0-5.4-2.4-8.6-6.8-8.6C283.6,267.5,281.5,268.4,280,270z"/>
<path d="M327.6,274.6c0-4.3-2.3-6.7-6.9-6.7c-2.9,0-5.7,1.1-7.9,3v25.3h-7.3v-33.7h6.7v4.2h0.1c3.1-3.1,7.4-4.8,11.8-4.8
	c7.1,0,10.9,4.3,10.9,12.5v21.8h-7.3V274.6z"/>
<path d="M352.6,286.9c0,3.1,1.7,4.4,4.7,4.4c1.8-0.1,3.5-0.3,5.2-0.8v5.8c-2.4,0.6-4.8,1-7.2,1c-6.4,0-10-3.2-10-10.1V268h-5.7v-5.5
	h5.7v-9.3h7.3v9.3h9.7v5.5h-9.7L352.6,286.9z"/>
<path d="M376.7,247.8v40.5c0,2.2,1.1,2.9,3.2,2.9c0.8,0,1.7-0.1,2.5-0.4v5.3c-1.8,0.6-3.6,0.8-5.5,0.8c-5.1,0-7.4-2.6-7.4-6.6v-42.5
	H376.7z"/>
<path d="M403.7,297.4c-3.3,9.3-7.2,12.6-14.6,12.6c-1.9,0-3.8-0.2-5.6-0.6V303c1.7,0.7,3.6,1.1,5.4,1.1c4.3-0.1,5.9-1.9,7.5-6.9
	l-12.5-34.7h7.2l9.2,25.9h0.2l9.1-25.9h6.8L403.7,297.4z"/>
<path d="M197.8,258.2c0-7.4,4.1-11.3,11.7-11.3c1.9,0,3.9,0.2,5.7,0.7v5.8c-1.4-0.4-2.9-0.6-4.4-0.6c-3.9,0-5.7,2.2-5.7,6.4v3.2h5.6
	v5.5h-5.6v28.2h-7.3V268h-5.6v-5.5h5.6V258.2z"/>
</svg>
