<?xml version="1.0" encoding="utf-8"?><svg xmlns="http://www.w3.org/2000/svg" width="200.94" height="116.941" viewBox="0 0 200.94 116.941">
  <g id="_08" data-name="08" transform="translate(-884 -899.327)">
    <g id="Group_59" data-name="Group 59" transform="translate(885 900.327)">
      <path id="Path_265" data-name="Path 265" d="M906.269,988.733V906.727a6.4,6.4,0,0,1,6.4-6.4h149.345a6.4,6.4,0,0,1,6.4,6.4v82.006" transform="translate(-887.872 -900.327)" fill="none" stroke="#cbb149" stroke-linecap="round" stroke-linejoin="round" stroke-width="2"/>
      <path id="Path_266" data-name="Path 266" d="M956.2,1012.536v5.6h56.543v-5.6h71.2l-7.838,10.291a19.2,19.2,0,0,1-15.272,7.568l-152.706.027a19.2,19.2,0,0,1-15.287-7.58L885,1012.536Z" transform="translate(-885 -915.481)" fill="none" stroke="#cbb149" stroke-linecap="round" stroke-linejoin="round" stroke-width="2"/>
      <g id="Group_58" data-name="Group 58" transform="translate(29.444 12.306)">
        <path id="Path_267" data-name="Path 267" d="M928.266,914.555v69.572h132.568" transform="translate(-920.287 -914.555)" fill="none" stroke="#cbb149" stroke-linecap="round" stroke-linejoin="round" stroke-width="2"/>
        <path id="Path_268" data-name="Path 268" d="M1071.917,985.757l7.982,7.985-7.982,7.979" transform="translate(-939.687 -924.171)" fill="none" stroke="#cbb149" stroke-linecap="round" stroke-linejoin="round" stroke-width="2"/>
        <path id="Path_269" data-name="Path 269" d="M919.042,922.537l7.978-7.982,7.986,7.982" transform="translate(-919.042 -914.555)" fill="none" stroke="#cbb149" stroke-linecap="round" stroke-linejoin="round" stroke-width="2"/>
      </g>
      <path id="Path_270" data-name="Path 270" d="M948.732,981.572v-26.8h19.2v26.8" transform="translate(-893.607 -907.679)" fill="none" stroke="#cbb149" stroke-linecap="round" stroke-linejoin="round" stroke-width="2"/>
      <path id="Path_271" data-name="Path 271" d="M987.772,979.074v-42.8h19.2v42.8" transform="translate(-898.879 -905.181)" fill="none" stroke="#cbb149" stroke-linecap="round" stroke-linejoin="round" stroke-width="2"/>
      <path id="Path_272" data-name="Path 272" d="M1026.816,976.576v-58.8h19.2v58.8" transform="translate(-904.152 -902.683)" fill="none" stroke="#cbb149" stroke-linecap="round" stroke-linejoin="round" stroke-width="2"/>
    </g>
  </g>
</svg>
