<svg xmlns="http://www.w3.org/2000/svg" width="75.501" height="74.839" viewBox="0 0 75.501 74.839"><defs><style>.a{fill:#707070;}</style></defs><path class="a" d="M129.105,93.427l-2.9-3.018a5.039,5.039,0,0,1-.841-5.788L127.3,80.9a5.154,5.154,0,0,0-3.343-7.322l-4.072-.968a5.047,5.047,0,0,1-3.829-4.424l-.381-4.166a5.154,5.154,0,0,0-6.769-4.35l-3.957,1.391a5.036,5.036,0,0,1-5.6-1.649l-2.578-3.308a5.155,5.155,0,0,0-8.044.007l-2.576,3.3a5.023,5.023,0,0,1-5.611,1.649l-3.954-1.386a5.151,5.151,0,0,0-6.766,4.35l-.384,4.168a5.041,5.041,0,0,1-3.827,4.422l-4.075.976A5.152,5.152,0,0,0,58.19,80.9l1.934,3.719a5.031,5.031,0,0,1-.831,5.783l-2.9,3.023a5.155,5.155,0,0,0,1.145,7.963l3.638,2.079a5.041,5.041,0,0,1,2.431,5.319l-.808,4.109a5.153,5.153,0,0,0,5.262,6.083l4.2-.219a5.037,5.037,0,0,1,4.908,3.163l1.543,3.891a5.147,5.147,0,0,0,7.715,2.269l3.406-2.441a5.043,5.043,0,0,1,5.85,0l3.4,2.443a5.15,5.15,0,0,0,7.715-2.269l1.543-3.891a5.041,5.041,0,0,1,4.918-3.16l4.186.216a5.158,5.158,0,0,0,5.269-6.083l-.811-4.109a5.025,5.025,0,0,1,2.428-5.319l3.64-2.079A5.158,5.158,0,0,0,129.105,93.427ZM92.748,117.355a25.167,25.167,0,1,1,25.167-25.167A25.169,25.169,0,0,1,92.748,117.355Zm0-45.3a20.134,20.134,0,1,0,20.134,20.134A20.136,20.136,0,0,0,92.748,72.054Zm10.48,16.133-8.8,12.414c-1.526,1.679-5.39,1.428-6.491-.143l-6.188-8.346c-1.194-1.708-.413-2.942.946-3.886s2.778-1.273,3.972.443l4.579,6.164L98.31,84.741c1.194-1.713,2.615-1.4,3.974-.447S104.423,86.474,103.228,88.187Z" transform="translate(-54.996 -54.179)"/></svg>