<?xml version="1.0" encoding="utf-8"?>
<!-- Generator: Adobe Illustrator 19.0.0, SVG Export Plug-In . SVG Version: 6.00 Build 0)  -->
<svg version="1.1" id="Layer_1" xmlns="http://www.w3.org/2000/svg" xmlns:xlink="http://www.w3.org/1999/xlink" x="0px" y="0px"
	 viewBox="0 0 298 69" enable-background="new 0 0 298 69" xml:space="preserve">
<g>
	<path fill="#5C6670" d="M16.32495,4.54688v32.60205h-2.6001V4.54688H1.52417v-2.3999h27.00146v2.3999H16.32495z"/>
	<path fill="#5C6670" d="M46.52368,37.14893V2.14697h24.90186v2.3999H49.12378v13.75098h20.05127v2.3999H49.12378v14.05078h22.55176
		v2.40039H46.52368z"/>
	<path fill="#5C6670" d="M120.27563,37.14893V6.74707l-13.85059,20.15137h-0.2002L92.37427,6.74707v30.40186h-2.50049V2.14697
		h2.4502l14.05078,20.70117l14.05078-20.70117h2.4502v35.00195H120.27563z"/>
	<path fill="#5C6670" d="M156.32446,24.09814h-9.45068v13.05078h-2.6001V2.14697h12.70117
		c7.7002,0,13.00098,3.9502,13.00098,10.70068v0.09961C169.97583,20.29785,163.62524,24.09814,156.32446,24.09814z
		 M167.37524,12.99756c0-5.55029-4.30078-8.45068-10.60059-8.45068h-9.90088v17.15088h9.60107
		c6.5,0,10.90039-3.3999,10.90039-8.6001V12.99756z"/>
	<path fill="#5C6670" d="M187.87329,37.14893V2.14697h24.90137v2.3999h-22.30078v13.75098h20.05078v2.3999h-20.05078v14.05078
		h22.55078v2.40039H187.87329z"/>
	<path fill="#5C6670" d="M243.22388,37.64893c-5.59961,0-9.90039-1.84961-14.10059-5.6001l1.7002-1.9502
		c3.85059,3.55029,7.40039,5.19971,12.55078,5.19971c5.25,0,8.85059-2.94971,8.85059-6.9502v-0.09961
		c0-3.7002-1.9502-5.85059-9.90039-7.45068c-8.40137-1.7002-11.80078-4.55029-11.80078-9.85059v-0.1001
		c0-5.2002,4.75-9.2002,11.25-9.2002c5.10059,0,8.45117,1.3999,12.00098,4.25l-1.65039,2.05029
		c-3.2998-2.8501-6.59961-3.9502-10.4502-3.9502c-5.15039,0-8.55078,2.9502-8.55078,6.6001v0.1001
		c0,3.7002,1.90039,5.9502,10.20117,7.65039c8.10059,1.65039,11.5,4.55029,11.5,9.65088v0.09961
		C254.82446,33.74854,249.97485,37.64893,243.22388,37.64893z"/>
	<path fill="#5C6670" d="M284.27466,4.54688v32.60205h-2.59961V4.54688h-12.20117v-2.3999h27.00195v2.3999H284.27466z"/>
</g>
<g>
	<path fill="#5C6670" d="M108.95044,67.14893h-4.13086V55.25049h4.13086c3.73975,0,6.32324,2.56641,6.32324,5.93164
		C115.27368,64.54834,112.69019,67.14893,108.95044,67.14893z M108.95044,56.49072h-2.7876v9.41699h2.7876
		c3.00879,0,4.92969-2.03906,4.92969-4.69141C113.88013,58.56494,111.95923,56.49072,108.95044,56.49072z"/>
	<path fill="#5C6670" d="M127.15698,56.47412h-7.2583v4.0625h6.49316v1.22363h-6.49316v4.16504h7.34326v1.22363h-8.68652V55.25049
		h8.60156V56.47412z"/>
	<path fill="#5C6670" d="M134.65405,60.55322c2.65186,0.57813,3.87598,1.54688,3.87598,3.38281
		c0,2.05664-1.7002,3.38281-4.06299,3.38281c-1.88672,0-3.43359-0.62891-4.86133-1.90332l0.83301-0.98633
		c1.24072,1.12207,2.43066,1.68262,4.07959,1.68262c1.59766,0,2.65186-0.83301,2.65186-2.04004
		c0-1.12109-0.59521-1.75-3.09375-2.27734c-2.73682-0.59473-3.99463-1.47852-3.99463-3.4502
		c0-1.9043,1.64893-3.26367,3.90967-3.26367c1.73389,0,2.97461,0.49219,4.18164,1.46191l-0.78223,1.03613
		c-1.10498-0.90039-2.20947-1.29199-3.43359-1.29199c-1.54688,0-2.53271,0.85059-2.53271,1.93848
		C131.42456,59.36377,132.03638,59.99268,134.65405,60.55322z"/>
	<path fill="#5C6670" d="M143.15454,55.25049v11.89844h-1.34277V55.25049H143.15454z"/>
	<path fill="#5C6670" d="M152.57153,67.35303c-3.73926,0-6.05127-2.71973-6.05127-6.13672
		c0-3.28027,2.39697-6.16992,5.96631-6.16992c2.00586,0,3.24707,0.57813,4.43652,1.58105l-0.86621,1.01953
		c-0.91797-0.79883-1.93848-1.36035-3.62109-1.36035c-2.63477,0-4.52148,2.22754-4.52148,4.89551
		c0,2.85645,1.81885,4.96387,4.7085,4.96387c1.35986,0,2.61768-0.52734,3.43408-1.18945v-2.95801h-3.62109V60.7915h4.91211v4.74219
		C156.24341,66.52002,154.57739,67.35303,152.57153,67.35303z"/>
	<path fill="#5C6670" d="M169.70728,55.25049h1.30957v11.89844h-1.07129l-7.68359-9.75684v9.75684h-1.30859V55.25049h1.25781
		l7.49609,9.53613V55.25049z"/>
	<path fill="#5C6670" d="M179.09204,60.55322c2.65234,0.57813,3.87598,1.54688,3.87598,3.38281
		c0,2.05664-1.7002,3.38281-4.0625,3.38281c-1.88672,0-3.43359-0.62891-4.86133-1.90332l0.83203-0.98633
		c1.24121,1.12207,2.43164,1.68262,4.08008,1.68262c1.59766,0,2.65137-0.83301,2.65137-2.04004
		c0-1.12109-0.59473-1.75-3.09375-2.27734c-2.73633-0.59473-3.99414-1.47852-3.99414-3.4502
		c0-1.9043,1.64844-3.26367,3.90918-3.26367c1.73438,0,2.97461,0.49219,4.18164,1.46191l-0.78125,1.03613
		c-1.10547-0.90039-2.20996-1.29199-3.43359-1.29199c-1.54688,0-2.5332,0.85059-2.5332,1.93848
		C175.86255,59.36377,176.47485,59.99268,179.09204,60.55322z"/>
</g>
</svg>
