<?xml version="1.0" encoding="utf-8"?>
<!-- Generator: Adobe Illustrator 19.0.0, SVG Export Plug-In . SVG Version: 6.00 Build 0)  -->
<svg version="1.1" id="Layer_1" xmlns="http://www.w3.org/2000/svg" xmlns:xlink="http://www.w3.org/1999/xlink" x="0px" y="0px"
	 viewBox="0 0 340 105" style="enable-background:new 0 0 340 105;" xml:space="preserve">
<g>
	<path style="fill:#333333;" d="M163.01517,46.54659c-1.09789,0.76103-2.22392,1.48484-3.28836,2.29007
		c-3.17349,2.40069-6.35751,4.78978-9.46857,7.2698c-1.86613,1.48764-3.59203,3.15015-5.40184,4.70979
		c-2.11092,1.81914-4.23116,3.62801-6.37294,5.4106c-1.57172,1.30814-3.651,1.10912-5.65289-0.54408
		c-1.54065-1.27229-2.50537-2.72083-2.78337-4.90638c-0.41132-3.23368-0.46812-6.41282-0.22086-9.63611
		c0.03346-0.43652-0.22041-1.06894-0.55579-1.3022c-0.24649-0.17144-1.00745,0.01388-1.25764,0.29276
		c-1.6403,1.82837-3.84637,3.04963-5.17296,5.25885c-0.86134,1.43443-2.3631,2.47246-3.50455,3.75348
		c-1.51399,1.6991-2.89488,3.51937-4.4458,5.18233c-1.76414,1.89157-2.76166,1.66958-4.20025-0.48658
		c-1.7927-2.68691-1.68551-5.66268-1.56948-8.66059c0.11411-2.94844,0.30183-5.89465,0.37226-8.84388
		c0.02909-1.21849-0.91214-1.75618-1.94135-1.14051c-2.59078,1.54979-4.75241,3.56451-6.70757,5.88947
		c-1.71603,2.04058-2.95096,4.53812-5.39819,5.95161c-0.5418,0.31293-0.82403,1.05401-1.26828,1.56068
		c-2.02357,2.30786-4.07708,4.58966-6.0839,6.91187c-0.43465,0.50296-0.77776,1.10709-1.06446,1.71139
		c-0.64724,1.3642-1.79242,1.70589-3.00021,0.79548c-0.37566-0.28316-0.78972-0.62666-0.97146-1.03754
		c-1.08152-2.44515-1.72447-5.01107-0.17648-7.4346c1.69334-2.65108,3.67372-5.11741,5.47797-7.69991
		c0.56416-0.8075,1.03831-1.70085,1.39886-2.6159c0.13787-0.34987-0.0207-1.02527-0.2954-1.26798
		c-0.25465-0.22498-0.9745-0.25611-1.26488-0.05241c-1.55372,1.09-3.06866,2.24187-4.5353,3.44742
		c-1.28442,1.05576-2.49739,2.19973-3.72355,3.32476c-1.46791,1.34684-2.81104,2.85651-4.3998,4.03802
		c-1.98988,1.47979-4.17442,2.69787-6.27557,4.0279c-0.06686,0.04232-0.15004,0.06216-0.21016,0.11136
		c-3.01082,2.46419-6.66333,3.59861-10.21401,4.95102c-1.6163,0.61563-3.25255,0.67834-4.93738,0.40856
		c-1.16328-0.18626-2.38106-0.1572-3.49736-0.48614c-2.45455-0.72323-3.73056-2.69321-4.77754-4.87067
		c-0.42585-0.88566-0.87068-1.82782-1.54184-2.51471c-1.03982-1.06419-1.17091-2.59475-0.40053-3.50476
		c2.25765-2.66688,2.59209-6.25777,4.58039-9.01482c0.69044-0.95741,1.51344-1.81968,2.2825-2.71975
		c0.38484-0.45039,0.86981-0.83833,1.16263-1.3402c1.22819-2.10499,2.97739-3.54648,5.15525-4.63726
		c2.71341-1.35903,5.57092-2.02825,8.53909-2.45562c2.10249-0.30272,4.06824,0.24615,5.97656,0.86922
		c2.27402,0.74249,2.99917,3.10922,1.61943,5.04069c-0.72915,1.02071-1.65581,1.98181-2.68663,2.68736
		c-1.75733,1.20281-3.70506,2.12376-5.50034,3.27602c-1.36789,0.87795-2.61197,1.9468-3.93242,2.90127
		c-1.35151,0.97692-2.73294,1.91236-4.09406,2.87614c-1.90991,1.35237-3.85549,2.65965-5.70196,4.09414
		c-0.96968,0.75333-1.15009,1.97069-0.79461,3.07557c0.35102,1.09101,1.4068,1.42389,2.45325,1.27706
		c1.72483-0.24201,3.42157-0.67856,5.14337-0.94895c4.33379-0.68057,7.38466-3.71658,10.8984-5.89333
		c2.39906-1.48621,4.75623-3.04553,7.07248-4.65785c1.4019-0.97585,2.67935-2.12895,4.0314-3.17832
		c2.54562-1.97573,4.94767-4.20554,7.71272-5.80556c1.89118-1.09435,4.27726-1.38795,6.47971-1.8662
		c1.05323-0.22871,1.70393,0.65084,1.96724,1.57108c0.27148,0.94881,0.28996,1.96721,0.49833,2.93817
		c0.09125,0.42519,0.28567,0.96292,0.60917,1.15842c0.23373,0.14125,0.82957-0.10255,1.14097-0.33754
		c2.75931-2.08219,5.47066-4.22818,8.23872-6.29844c1.68274-1.25853,3.49197-2.13574,5.73383-1.72775
		c2.10686,0.38343,4.1942,2.77052,4.19691,4.87759c0.00226,1.75235,0.17325,3.50459,0.17208,5.25682
		c-0.00075,1.11016-0.22831,2.21907-0.25443,3.33089c-0.00977,0.41636,0.15193,0.97318,0.44356,1.21504
		c0.21567,0.17886,0.87942,0.09431,1.15245-0.11831c1.63599-1.27392,3.30473-2.52721,4.79652-3.96019
		c2.67851-2.57288,5.66533-4.62435,9.11459-6.00156c2.22687-0.88914,5.3138,1.10732,5.48027,3.51854
		c0.15329,2.22031,0.42957,4.43463,0.50798,6.65667c0.04756,1.34747-0.1756,2.70476-0.28149,4.0573
		c-0.06142,0.78437-0.08344,1.71621,0.76714,1.93414c0.63359,0.16233,1.53778-0.03849,2.0961-0.4133
		c1.35176-0.90742,2.54697-2.04395,3.85031-3.02849c2.44147-1.84428,4.92717-3.62994,7.37195-5.46991
		c3.40767-2.56466,6.86201-5.07456,10.15921-7.77536c1.43317-1.17393,2.56543-2.73094,3.76323-4.17305
		c2.16852-2.61086,3.90462-2.5921,5.93173,0.13562c1.10919,1.49254,1.25182,3.12994,0.79379,4.89148
		c-0.38074,1.46431-0.71985,2.94252-0.99022,4.43041c-0.07144,0.39313,0.17931,0.84481,0.2821,1.2696
		c0.36127-0.15524,0.76697-0.2495,1.07684-0.47528c2.79669-2.03773,5.58502-4.08721,8.3578-6.15734
		c1.37102-1.02357,2.63945-2.19738,4.06882-3.12714c2.6118-1.69891,5.60858-1.83767,8.54706-1.44257
		c2.34999,0.31597,4.1386,3.11563,4.14067,5.50757c0.00253,2.95427-1.21292,5.59549-2.0688,8.30382
		c-0.4073,1.28888-1.67273,2.29756-2.49739,3.4698c-0.21028,0.29895-0.22209,0.73753-0.32509,1.11196
		c0.34448-0.06933,0.7482-0.04581,1.02451-0.22204c3.6185-2.30791,7.25406-4.59209,10.81046-6.99318
		c2.03607-1.37465,3.88396-3.02735,5.91458-4.41104c1.49234-1.0169,3.14345-1.8009,4.72427-2.68786
		c1.93221-1.08413,3.76953-2.42169,5.81998-3.19086c3.0078-1.12829,6.1759-1.94511,9.43941-1.10153
		c1.27495,0.32957,2.63452,0.72144,3.67453,1.47354c1.36459,0.98683,1.45993,2.37714,0.61363,3.8473
		c-0.37421,0.65006-0.81445,1.33117-1.39307,1.78215c-2.12364,1.65513-4.17697,3.38009-6.74844,4.43041
		c-1.46555,0.59861-2.66188,1.85068-3.98938,2.7945c-1.45531,1.03468-2.92839,2.04441-4.38232,3.08103
		c-1.87376,1.33594-3.77544,2.63755-5.58755,4.05318c-0.96024,0.75013-1.19496,1.92781-0.82964,3.04992
		c0.37924,1.16478,1.46661,1.46806,2.54901,1.31403c1.72414-0.24535,3.41721-0.70359,5.1389-0.97282
		c4.29849-0.67216,7.27676-3.74675,10.79211-5.84419c0.68394-0.40808,1.40605-0.75776,2.06355-1.20366
		c2.14096-1.45189,4.26443-2.92974,6.38658-4.40911c2.34938-1.63774,4.71715-3.25129,7.021-4.95118
		c0.92314-0.68113,1.80495-1.47847,2.51768-2.37267c1.76508-2.21453,3.4043-4.50691,4.14738-7.33274
		c0.34402-1.30838,1.14487-2.45143,2.60864-2.70214c1.57706-0.27011,2.78885,0.52354,3.72015,1.7228
		c0.41095,0.52919,0.81,1.12889,0.99597,1.76086c0.77399,2.63002,1.40659,5.30215,2.20071,7.92564
		c1.02664,3.39155,0.43094,6.68839-0.33737,10.00546c-0.0817,0.35273,0.04251,0.9474,0.29077,1.12791
		c0.25079,0.18239,0.88342,0.13844,1.16141-0.06383c1.77234-1.28966,3.60229-2.53185,5.20728-4.01295
		c3.16962-2.92501,6.25107-5.94991,9.28354-9.01799c3.13879-3.17571,6.32562-6.32547,9.20151-9.73139
		c1.69952-2.01273,2.86932-4.48146,4.19595-6.79186c0.22495-0.39183,0.20969-1.12557-0.02057-1.5019
		c-0.14938-0.24419-0.91351-0.24198-1.36264-0.15223c-3.10178,0.61983-6.21091,1.21904-9.2822,1.97005
		c-2.42749,0.59359-4.78723,1.46045-7.20831,2.08507c-2.61557,0.6748-5.30206,1.09079-7.88992,1.85037
		c-1.49197,0.43792-2.90546,1.2396-4.25284,2.0468c-1.36401,0.81713-2.11194,0.72343-2.89905-0.69076
		c-1.14859-2.06367-0.56482-4.64663,1.63458-6.08335c1.23883-0.80922,2.69894-1.37703,4.13724-1.76459
		c3.75452-1.01171,7.55731-1.84257,11.3306-2.78655c3.50534-0.87694,6.9902-1.83636,10.49948-2.69658
		c1.15143-0.28224,2.37344-0.27749,3.52383-0.56264c2.11014-0.52303,4.21848-1.08563,6.26785-1.80229
		c0.6344-0.22184,1.13086-0.95147,1.59567-1.52538c2.10339-2.59689,4.16605-5.22675,6.26285-7.82904
		c0.27097-0.33631,0.63687-0.60658,0.99048-0.8639c1.21646-0.88523,2.31616-0.6662,2.91754,0.71206
		c0.62061,1.42241,1.14035,2.89784,0.66486,4.51851c-0.14328,0.48833-0.13416,1.03114-0.13571,1.54918
		c-0.0029,0.96978,0.46158,1.54719,1.47903,1.40044c1.332-0.19211,2.6644-0.41445,3.9743-0.71955
		c2.59241-0.60382,5.15594-1.34067,7.76291-1.86612c0.61554-0.12406,1.58356,0.1812,1.96899,0.64124
		c0.32465,0.38745,0.28476,1.43791-0.01996,1.93199c-1.18768,1.92556-2.45398,3.8196-3.86966,5.58189
		c-1.02505,1.2761-1.65369,1.1472-3.11261,0.39754c-0.68225-0.35057-1.61578-0.51631-2.36414-0.37854
		c-2.5032,0.46086-4.97089,1.11166-7.45892,1.65907c-1.31729,0.28983-2.34698,0.95609-3.06473,2.10135
		c-0.14825,0.23662-0.327,0.45493-0.466,0.69646c-1.81906,3.15989-3.91721,6.05317-6.67117,8.5312
		c-2.54395,2.28904-3.83994,5.4842-4.78564,8.71649c-0.50912,1.7401-0.53333,3.61938-0.8125,5.4303
		c-0.26013,1.68771-0.64996,3.35909-0.83569,5.05378c-0.26926,2.45758-0.11237,4.81651,1.53412,6.92089
		c1.88776,2.41273,2.07758,5.20978,1.26859,8.07968c-0.68286,2.42235-2.91055,3.00922-4.67636,1.20557
		c-0.67917-0.69376-1.22772-1.57683-1.63397-2.46588c-1.91373-4.18876-1.96063-8.64525-1.85596-13.14167
		c0.05624-2.41446,0.3631-4.75359,1.07468-7.05248c0.09195-0.29699,0.12964-0.64582,0.07138-0.94723
		c-0.13855-0.71664-0.54282-1.12044-1.246-0.59409c-0.66901,0.50077-1.30579,1.06057-1.88391,1.6642
		c-4.34039,4.53193-8.81757,8.90131-14.09589,12.36761c-0.96414,0.63316-1.93536,1.31845-2.71823,2.15327
		c-2.52621,2.69388-5.96396,3.91412-9.01819,5.75177c-1.05704,0.63599-2.10472,1.29982-3.21153,1.83817
		c-2.35037,1.1432-4.67253,2.39537-7.12755,3.25737c-2.18938,0.76875-4.48283,0.50048-6.25667-1.20558
		c-1.02364-0.98451-1.84258-2.20017-2.64497-3.38538c-0.24768-0.36582-0.34544-1.0825-0.15335-1.45228
		c0.72124-1.38824,1.61359-2.6791,3.21252-3.21853c1.66728-0.56249,3.22237-0.9465,5.02272-0.01718
		c2.01442,1.03982,4.49425-0.22581,5.83385-2.38118c1.4705-2.366,2.87054-4.76823,3.78188-7.3974
		c0.38101-1.09927,0.40562-2.33623,0.49585-3.51795c0.082-1.07419,0.12273-2.16832,0.00381-3.23381
		c-0.05766-0.51617-0.42139-1.14167-0.84293-1.41757c-0.23625-0.15466-0.9794,0.19066-1.31374,0.5035
		c-2.73659,2.56067-5.38177,5.22072-8.1561,7.73887c-1.67441,1.51981-3.50948,2.86668-5.30804,4.24469
		c-2.74632,2.10415-5.56934,4.11045-8.27458,6.2653c-2.67636,2.13184-5.66791,3.62414-8.80154,4.93466
		c-2.97195,1.24291-6.08572,1.29583-9.15164,1.07483c-3.06633-0.22105-4.87236-2.43176-6.15273-5.07532
		c-0.41284-0.85242-0.80034-1.75161-1.38641-2.47868c-1.33177-1.65222-1.41112-2.99434-0.0428-4.68718
		c0.85632-1.05943,1.66208-2.12581,1.65468-3.7286c-0.33366,0.14483-0.59224,0.20478-0.78784,0.34972
		c-3.67043,2.71957-7.72304,4.89653-11.13979,7.98945c-0.96901,0.87717-2.30054,1.37519-3.5054,1.96641
		c-3.27859,1.60878-6.58211,3.16668-9.86823,4.76027c-1.75294,0.85008-3.49985,1.65257-5.50981,1.73366
		c-1.70773,0.06889-3.41267,0.25895-5.11264,0.45046c-1.16589,0.13134-2.12495-0.21745-2.92824-1.0365
		c-0.55971-0.57072-1.07936-1.18127-1.64772-1.74286c-0.90253-0.89173-1.69554-0.79296-2.28249,0.33403
		c-0.32826,0.63023-0.48489,1.34731-0.76152,2.00739c-1.35329,3.22929-2.76566,6.43459-4.06944,9.68357
		c-1.06645,2.65756-1.92688,5.39906-3.02742,8.04139c-1.48439,3.56399-3.02579,7.10997-4.70488,10.58533
		c-1.30428,2.69953-3.21584,4.94357-5.90947,6.41969c-1.47729,0.80956-2.80098,0.77246-3.70216-0.6236
		c-1.17155-1.81486-2.3024-3.77442-2.86943-5.83192c-0.75447-2.73766,0.19293-5.49605,1.28438-8.00588
		c2.13623-4.91231,5.20389-9.30146,8.26886-13.67253c1.73233-2.47054,3.23505-5.17589,5.3197-7.30748
		c2.80855-2.87177,4.20131-6.30287,5.31607-9.98486c1.00275-3.31206,2.08163-6.60104,3.09608-9.90965
		c0.16473-0.53721,0.16924-1.12355,0.24782-1.68719C163.2477,46.6319,163.13144,46.58924,163.01517,46.54659z M187.57306,43.51202
		c-0.02664,0.0022-0.19075-0.00556-0.34302,0.03325c-0.23082,0.05883-0.47197,0.11707-0.67673,0.23238
		c-3.19087,1.79729-6.95755,2.57079-9.56232,5.41854c-0.64282,0.70281-1.34596,1.3848-2.12871,1.91905
		c-2.76628,1.88802-4.73471,4.4886-6.53813,7.22588c-0.34029,0.51651-0.6414,1.5172-0.38165,1.87988
		c0.63638,0.88862,1.18889-0.15807,1.77312-0.41644c2.05637-0.90941,4.16859-1.85076,6.37077-0.68236
		c1.22594,0.65046,2.1626,0.55086,3.33107-0.06417c2.79086-1.46899,4.62354-3.91256,6.48811-6.28051
		c1.4924-1.89529,2.83257-3.95097,3.95468-6.0856C190.92282,44.67059,190.00667,43.48769,187.57306,43.51202z M153.01711,77.9091
		c-0.06529-0.03992-0.1306-0.07985-0.19591-0.11977c-0.28955,0.25572-0.62144,0.47704-0.86168,0.77284
		c-1.40054,1.72437-2.8924,3.38942-4.13884,5.22057c-1.77107,2.60192-3.26245,5.36639-3.51288,8.61437
		c-0.0457,0.59285-0.2119,1.18073-0.21144,1.77083c0.0002,0.2611,0.22261,0.64587,0.44562,0.74409
		c0.18111,0.07975,0.56606-0.1273,0.76601-0.31044c0.2578-0.23611,0.42604-0.57202,0.62465-0.87042
		c2.3087-3.46887,4.03377-7.2164,5.3687-11.15628C151.83293,81.00596,152.44286,79.46357,153.01711,77.9091z M66.28758,41.84566
		c-0.64706-0.10619-1.10469-0.29515-1.52456-0.23223c-3.43834,0.5153-6.19952,2.39096-8.68319,4.64865
		c-0.84103,0.7645-1.30142,1.97126-1.84552,3.02262c-0.13886,0.26831-0.05712,0.84116,0.14929,1.0435
		c0.20067,0.19671,0.71008,0.18156,1.04966,0.10584c0.37486-0.08358,0.74935-0.29219,1.05767-0.5317
		c3.04372-2.36444,6.07626-4.74334,9.10174-7.13109C65.79763,42.60952,65.92004,42.34321,66.28758,41.84566z M227.02971,41.50581
		c-0.63971,0.12954-1.12335,0.17729-1.57335,0.32649c-3.85854,1.27935-7.37839,3.04018-9.263,6.93282
		c-0.21707,0.44835-0.05898,1.07834-0.07481,1.62411c0.50882-0.05537,1.15251,0.06968,1.50543-0.19419
		c3.28523-2.4562,6.52548-4.97285,9.75764-7.499c0.19264-0.15057,0.34117-0.58405,0.26251-0.7923
		C227.56366,41.69072,227.17798,41.59299,227.02971,41.50581z"/>
	<path style="fill:#333333;" d="M32.97979,51.67695c0,1.27618-0.14312,2.57431,0.04804,3.82117
		c0.13784,0.89909,0.56494,1.85379,1.13341,2.56868c1.93114,2.4285,2.22509,5.14024,1.67128,8.04607
		c-0.22173,1.16341-0.8091,2.14457-1.98383,2.50044c-1.19609,0.36235-2.32808-0.13525-2.96527-1.09104
		c-0.87072-1.30608-1.59689-2.74641-2.15226-4.21709c-1.22118-3.2338-1.22228-6.63949-1.13636-10.04213
		c0.06746-2.67152,0.08721-5.34317,1.01228-7.90807c0.1304-0.36154,0.14078-0.80235,0.08316-1.188
		c-0.10997-0.73615-0.49825-1.10055-1.23416-0.60654c-0.43019,0.28878-0.85693,0.59506-1.23477,0.94755
		c-2.74138,2.55754-5.44823,5.15247-8.21096,7.68657c-1.55413,1.42551-3.16685,2.79143-4.8135,4.10879
		c-0.42022,0.33619-1.07002,0.38541-1.61434,0.56649c-0.12491-0.55371-0.30698-1.10222-0.35782-1.66264
		c-0.04611-0.50838-0.01826-1.0463,0.10071-1.54147c0.17804-0.74107,0.26514-1.64418,0.74078-2.14822
		c1.67057-1.77029,3.506-3.38376,5.25107-5.08524c5.1189-4.99105,10.19524-10.03183,14.57458-15.69823
		c1.12935-1.46127,1.83414-3.26294,2.63949-4.95325c0.18882-0.39631,0.15704-1.08696-0.07926-1.43359
		c-0.17283-0.25353-0.88486-0.30985-1.29047-0.20308c-1.32884,0.34983-2.62024,0.8393-3.941,1.22364
		c-0.6079,0.17689-1.24959,0.32283-1.8777,0.32995c-2.39642,0.02714-4.61846,0.76826-6.87489,1.46295
		c-2.46911,0.76017-4.99368,1.3436-7.50268,1.9696c-1.81451,0.45272-3.68145,0.7321-5.45159,1.31264
		c-1.14584,0.3758-2.18455,1.11485-3.22511,1.765c-1.08275,0.67651-1.67353,0.63137-2.4665-0.347
		c-1.31319-1.62024-1.03333-4.3972,0.87237-5.90711c1.18425-0.9383,2.63645-1.70584,4.09053-2.10475
		c4.36638-1.19785,8.7978-2.15667,13.19387-3.24889c2.89138-0.71838,5.7564-1.5437,8.65149-2.24586
		c1.30703-0.317,2.67478-0.38052,3.98596-0.68429c1.8462-0.42773,3.7088-0.8555,5.47812-1.51476
		c0.90032-0.33547,1.72894-1.07222,2.38827-1.80825c2.44028-2.72413,4.12711-6.08296,7.07735-8.38611
		c1.23816-0.96659,2.56929-0.82802,3.09386,0.63252c0.46861,1.30469,0.50555,2.77142,0.67126,4.17395
		c0.05476,0.46351-0.11779,0.94917-0.12548,1.42568c-0.02129,1.31942,0.3531,1.74597,1.63012,1.54939
		c1.79646-0.27654,3.57444-0.68412,5.35034-1.08038c2.09447-0.46735,4.17562-0.99416,6.2681-1.47083
		c0.79361-0.18079,1.65009-0.08945,1.97176,0.70588c0.21637,0.53496,0.20539,1.39761-0.09346,1.86407
		c-1.24033,1.93598-2.58423,3.81109-3.98096,5.63913c-0.73017,0.95564-1.65714,0.93633-2.77411,0.38384
		c-0.78286-0.38722-1.83443-0.55169-2.69415-0.40226c-2.46701,0.42877-4.92338,0.97759-7.32969,1.6682
		c-0.97496,0.27981-2.00657,0.87788-2.66304,1.63433c-1.06083,1.22238-1.75867,2.75189-2.74583,4.04811
		c-1.2017,1.57795-2.42044,3.17904-3.85204,4.53816c-2.84523,2.70121-4.63969,5.99728-5.67948,9.68357
		c-0.55692,1.9744-0.59596,4.09092-0.93194,6.1329c-0.25111,1.52618-0.6034,3.0357-0.91064,4.55264
		C32.83644,51.65218,32.90811,51.66456,32.97979,51.67695z"/>
	<path style="fill:#333333;" d="M253.49646,92.69451c0.88196,0.9291,1.76393,1.85821,2.64587,2.78731
		c-0.05627,0.06749-0.11252,0.13499-0.16879,0.20248c-0.73697-0.65305-1.47392-1.30611-2.52124-2.23415
		c0.18895,1.43466,0.34064,2.58649,0.51511,3.91105c-0.25708-0.34344-0.42633-0.56958-0.7771-1.03823
		c0,0.96286,0.07394,1.69839-0.01811,2.41251c-0.12433,0.96443-1.0153,1.36665-1.74138,1.58544
		c-1.08113,0.3258-2.27164-0.46213-2.52158-1.40401c-0.85445-3.21982-0.77213-6.4277-0.15088-9.69595
		c0.20209-1.06324,1.11026-1.42484,1.47501-2.27075c0.08646-0.20055,1.23856,0.05839,2.03534,0.11566
		c-0.21782-0.7439-0.50865-1.73711-0.79947-2.73031c2.64471,2.95252,5.44702,5.57073,8.39444,8.03324
		c0.14322-0.06813,0.28641-0.13626,0.42966-0.2044c0-1.21426-0.16785-2.45876,0.04388-3.6349
		c0.24606-1.36657,0.07504-2.79146,1.27686-4.0481c0.89328-0.93404,1.05081-2.57173,1.59476-4.05627
		c0.22601,0.34104,0.34119,0.51491,0.50125,0.75645c0.34625-0.54556,0.67773-1.0678,1.02658-1.61747
		c-0.07547,1.21123-0.14926,2.39575-0.22308,3.58028c0.05246,0.01708,0.10492,0.03418,0.15738,0.05127
		c0.1637-0.30405,0.32733-0.60809,0.49103-0.91215c0.06152,0.01534,0.12305,0.03065,0.18457,0.04598
		c-0.10297,0.96646-0.29642,1.93339-0.2915,2.8993c0.01373,2.70174,0.23322,5.4077,0.13269,8.10309
		c-0.0769,2.06174-0.35983,4.09053,0.25586,6.12933c0.23477,0.77731-0.79825,2.19116-1.50095,2.31874
		c-1.76282,0.32004-2.31445,0.0107-2.73856-1.40031c-0.16592-0.5521-0.3851-1.17357-0.78021-1.5573
		c-2.1973-2.13395-4.45615-4.20454-6.69394-6.29681C253.65211,92.58186,253.5743,92.63818,253.49646,92.69451z"/>
	<path style="fill:#333333;" d="M229.95709,87.70733c1.52827-3.07411,6.26241-5.21355,9.474-4.13089
		c0.72227,0.24348,1.49625,1.00485,1.76622,1.71133c0.22514,0.58916-0.39516,1.21127-1.05354,1.77328
		c-0.71764,0.61256-1.12143,0.56632-1.78456,0.28551c-1.13713-0.48151-2.13902-0.10485-2.97981,0.63382
		c-0.72827,0.63979-1.33211,1.42119-1.99094,2.14c-0.08095-0.0714-0.16193-0.1428-0.2429-0.2142
		c0.30974-0.45814,0.61946-0.91628,0.92915-1.37442c-2.85612,2.38919-4.06743,5.48117-3.81541,9.1339
		c0.07767,1.1258,1.85587,2.35359,3.01373,2.11775c2.44228-0.49745,4.93951-0.87714,6.9825-2.49635
		c0.51704-0.40982,1.00519-0.85612,1.37172-1.54538c-0.56953,0.10692-1.14442,0.19164-1.70718,0.3267
		c-0.62389,0.14974-1.14766,0.51701-1.82983-0.15254c-0.25647-0.25175-1.24242,0.23975-1.84752,0.38113
		c-0.46919-0.53232-1.06978-1.1315-1.55437-1.81318c-0.14696-0.20674-0.10143-0.79182,0.07722-0.94426
		c0.58966-0.50316,1.22575-1.08627,1.94194-1.28382c3.32054-0.91597,6.70332-1.2884,10.29935-0.73401
		c0.08382,1.1849,0.35204,2.41116,0.18556,3.57528c-0.10158,0.71065-0.76366,1.452-1.35976,1.96266
		c-3.25224,2.78593-6.72006,5.27706-10.96588,6.27969c-1.20905,0.2855-2.62543,0.65754-3.8259-0.34373
		c0.51573,0.09551,1.03148,0.19102,1.5472,0.28654c-1.91696-1.27473-3.79442-2.48431-4.59695-5.06592
		c0.33649,0.36066,0.48964,0.52484,0.64281,0.68903c-1.01947-3.06428-0.90059-6.03966,0.536-9.14541
		c-0.42288,0.23351-0.5882,0.32481-0.75352,0.41609c-0.07274-0.05336-0.14551-0.10673-0.21826-0.1601
		c0.60094-0.78402,1.20187-1.56804,1.80351-2.35275c-0.24435,0.55181-0.48936,1.10432-0.73438,1.65681
		c0.04172,0.0084,0.08344,0.0168,0.12515,0.02521c0.96692-1.172,1.93382-2.34401,2.90071-3.51601
		c-0.0356-0.04181-0.07117-0.08362-0.10675-0.12542C231.4433,86.37156,230.70021,87.03945,229.95709,87.70733z"/>
	<path style="fill:#333333;" d="M178.78474,79.28133c0,0.56298-0.00388,0.82478,0.00075,1.08645
		c0.01207,0.68608,0.16376,1.23557,0.99307,1.37078c2.24431,0.36594,4.00902,1.56841,5.47719,3.25271
		c0.18233,0.20916,0.41542,0.42683,0.47968,0.67776c0.50681,1.97951,1.27371,3.95246,0.01645,5.96029
		c-0.40106,0.64045-0.54044,1.44513-0.94328,2.08402c-1.69896,2.69432-4.38931,3.91193-7.29886,4.79685
		c-1.2063,0.3669-2.75008,0.36545-2.80632,2.23338c-0.0584-0.21343-0.11681-0.42686-0.22583-0.8253
		c-0.34993,0.53509-0.62657,0.93616-0.87993,1.35146c-0.26918,0.44123-0.51628,0.8959-0.85716,1.49178
		c-0.03134-0.38377-0.05099-0.62434-0.09727-1.19107c-0.36472,0.63707-0.59712,1.04305-0.82956,1.44905
		c-0.08591,0.00106-0.17183,0.00214-0.25775,0.0032c0-0.67896,0.06897-1.3682-0.03009-2.03239
		c-0.0471-0.31583-0.3644-0.66152-0.65337-0.84755c-0.20798-0.13391-0.57159-0.02608-1.0764-0.02608
		c0.711-0.32498,1.20454-0.55056,1.69806-0.77615c-0.03-0.09765-0.06-0.19531-0.09-0.29297c-0.90446,0-1.80893,0-3.07385,0
		c1.35603-0.38573,2.37257-0.6749,3.38913-0.96407c-0.02838-0.11277-0.05676-0.22555-0.08514-0.33833
		c-0.98686,0.16211-1.97372,0.3242-2.96059,0.48631c-0.01012-0.04218-0.02022-0.08438-0.03033-0.12657
		c0.2594-0.08795,0.51552-0.24014,0.77872-0.2536c1.90739-0.0976,2.78114-1.07987,3.01022-2.98515
		c0.131-1.08948-0.01625-2.38691,1.1057-3.23243c0.15314-0.11542-0.239-0.81055-0.15546-1.18784
		c0.30891-1.39492,0.71333-2.76863,1.07759-4.15143c0.10779-0.40916,0.20154-0.82201,0.32021-1.30903
		c-0.48357,0-0.86859,0-1.34882,0c0.03113-0.71477,0.61565-1.4496-0.00029-2.182c-0.04889-0.05812,0.55302-0.9287,0.95827-1.04142
		c0.6068-0.16879,1.08238-0.19135,1.25244-0.96712c0.15141-0.69077,0.66368-0.95858,1.42171-0.61334
		c0.20995,0.09562,0.59415-0.12239,0.8683-0.25757C178.17108,79.80606,178.36787,79.6022,178.78474,79.28133z M178.291,85.51126
		c-0.76797,3.68529-1.49655,7.18166-2.27821,10.93262c0.96048-0.44562,1.66696-0.77338,2.37344-1.10114
		c-0.03329-0.07983-0.06657-0.15968-0.09987-0.23951c-0.41681,0.14481-0.83362,0.28963-1.25043,0.43445
		c1.65129-1.19382,3.22273-2.44625,4.69928-3.80203c1.64145-1.50719,1.78223-4.75536-1.20789-5.71082
		C179.85767,85.81084,179.15321,85.70571,178.291,85.51126z"/>
	<path style="fill:#333333;" d="M216.11841,81.27844c-0.82796,0.46606-1.47137,0.82825-2.18906,1.23223
		c0.02841,0.21533,0.0652,0.49432,0.10989,0.83329c0.46777-0.17905,0.92184-0.35286,1.37592-0.52667
		c-2.39505,2.10868-5.00443,3.93951-6.51755,6.97086c1.30766,0.50854,2.56778,0.98388,3.81619,1.4882
		c1.2834,0.51848,2.57115,1.03095,3.82797,1.60917c1.28778,0.59247,1.89859,2.3914,1.22752,3.65033
		c-0.80899,1.51771-1.87149,2.74586-3.69604,3.13451c-0.43718,0.09312-0.73517,0.71732-1.17775,0.92787
		c-2.39931,1.14148-5.00439,1.76001-7.49104,0.82422c-1.18185-0.44476-2.68871-1.30747-3.00342-3.01411
		c-0.0596-0.32323-0.44067-0.58719-0.69078-0.90022c0.13634-0.20158,0.43991-0.44302,0.44368-0.68905
		c0.02757-1.80126,0.02666-1.82047,1.82468-2.02357c0.20914,0.36909,0.37871,0.95264,0.56949,0.95964
		c1.39311,0.05121,1.58023,2.15828,3.20303,1.79214c1.26776-0.28606,2.57594-0.39342,3.84315-0.6815
		c1.31129-0.29811,2.67123-0.60023,3.34863-2.34389c-2.16722-0.51228-4.30409-1.01739-6.44098-1.5225
		c-0.0946,0.10462-0.18921,0.20924-0.28383,0.31386c0.30228,0.13648,0.60454,0.27296,1.05566,0.47665
		c-0.32936,0.05418-0.46944,0.1255-0.54703,0.08293c-2.01781-1.10677-3.97075-3.46289-2.78438-6.23936
		c1.10396-2.58356,2.87413-4.32796,5.43121-5.3811c0.57982-0.23879,1.07111-0.68445,1.63744-0.96584
		C213.92496,80.83238,214.86288,80.33439,216.11841,81.27844z M204.85555,100.36237
		c1.75423,1.31353,5.99869,1.08085,8.14319-0.35804C210.25784,100.58271,207.72832,101.33653,204.85555,100.36237z"/>
	<path style="fill:#333333;" d="M280.59619,81.2752c-0.83224,0.46021-1.50519,0.83231-2.25568,1.24731
		c0.02921,0.18885,0.07172,0.46375,0.12457,0.8056c0.4552-0.1671,0.90762-0.33318,1.36005-0.49928
		c-2.33264,2.11636-4.96384,3.87435-6.4664,6.98548c1.73788,0.64817,3.44104,1.24394,5.11142,1.92068
		c1.06226,0.43036,2.10934,0.92297,3.10037,1.49626c0.76273,0.44118,1.1738,2.16673,0.75439,3.03745
		c-0.78561,1.63107-1.86005,2.96407-3.77521,3.37414c-0.31238,0.06689-0.56464,0.41437-0.84473,0.63206
		c-0.18378,0.14284-0.34811,0.32922-0.55453,0.42152c-2.35123,1.05126-4.90018,1.67709-7.27548,0.71534
		c-1.14508-0.46362-2.86322-1.17391-3.00079-3.07172c-0.02588-0.35709-0.59445-0.67485-1.01447-1.11827
		c0.35519-0.07231,0.60257-0.12267,0.86554-0.17619c-0.55167-1.50856-0.11533-2.03268,1.8602-2.29858
		c0.01959,0.30665,0.03897,0.61086,0.05746,0.90068c0.34879,0.08408,0.83279,0.05741,0.94861,0.25101
		c1.07675,1.8,2.76767,1.86736,4.50388,1.5592c1.24234-0.2205,2.48508-0.59515,3.63766-1.10461
		c0.65735-0.29055,1.13412-0.98952,1.6922-1.50459c-0.04825-0.12922-0.0965-0.25843-0.14471-0.38763
		c-2.12897-0.48112-4.25797-0.96224-6.38696-1.44337c-0.03668,0.10432-0.07336,0.20863-0.11005,0.31294
		c0.86319,0.38551,1.72641,0.771,2.58963,1.1565c-1.62814-0.41477-3.22198-0.71202-4.2298-2.4163
		c-0.53156-0.89886-1.38522-1.63219-1.04623-2.72746c0.4397-1.42072,0.80975-3.01535,1.72708-4.09598
		c1.06174-1.25067,2.68015-2.03192,4.0683-3.00064c0.48807-0.34063,0.99103-0.66994,1.52036-0.93931
		C278.36111,80.82489,279.33286,80.34449,280.59619,81.2752z M269.78683,100.85891c2.36383,0.86212,4.87384,0.38729,7.31882-0.51723
		C274.63196,100.5165,272.10837,100.69484,269.78683,100.85891z"/>
	<path style="fill:#333333;" d="M200.44055,97.76723c-1.70052,3.21423-4.79732,3.82471-7.83186,4.44068
		c-1.03761,0.21062-2.17589-0.17516-2.54611-1.30558c-0.53111-1.62161-0.84337-3.31491-1.24907-4.9776
		c0.13008-0.04248,0.26016-0.08497,0.39026-0.12746c0.11501,0.20252,0.23001,0.40505,0.345,0.60757
		c0.06969-0.01956,0.13937-0.03913,0.20908-0.0587c-0.26993-0.9442-0.53986-1.8884-0.73833-2.58266
		c0.27386-0.33263,0.59604-0.54671,0.64107-0.80846c0.22878-1.33014,0.29013-2.69516,0.59848-4.00358
		c0.24146-1.02442-0.01711-1.45734-1.03401-1.54223c-0.24721-0.02064-0.48201-0.19008-0.70091-0.28203
		c0.30144-0.86268,0.57118-1.63464,0.88907-2.5444c0.41846-0.22684,1.06508-0.46237,1.55922-0.87885
		c0.45935-0.38714,0.75609-0.96719,1.2195-1.59014c1.81873,1.10963,3.83339,0.78045,5.87866,0.39114
		c0.92546-0.17617,1.89532-0.11916,2.91017,0.02512c-0.29533,0.17923-0.59065,0.35845-1.02252,0.62054
		c0.53339,0.09554,0.93248,0.16703,1.65034,0.29562c-1.23279,0.71314-2.20976,1.27831-3.0675,1.77448
		c0.10446,0.00977,0.43132,0.04034,0.97339,0.09104c-0.29898,0.11609-0.38721,0.16127-0.48088,0.1851
		c-1.54097,0.39207-3.07034,0.84591-4.62964,1.14232c-0.70561,0.13413-0.92117,0.45943-1.01859,1.07679
		c-0.16689,1.0577-0.38107,2.10795-0.60408,3.31676c0.93787-0.08401,1.81042-0.16217,2.68297-0.24033
		c0.00476,0.02392,0.00949,0.04783,0.01424,0.07175c-0.3811,0.09284-0.76219,0.18568-1.14328,0.27853
		c0.00397,0.07818,0.00792,0.15636,0.01189,0.23454c1.0486,0.15633,2.09717,0.31267,3.14575,0.46899
		c0.00455,0.09951,0.00908,0.19902,0.01363,0.29854c-0.35635,0.07774-0.71272,0.15549-1.05798,0.23082
		c0.15961,0.45373,0.32365,0.92005,0.48412,1.37619c-1.28246,0.31583-2.45564,0.52542-3.57198,0.90302
		c-1.02235,0.34579-1.22319,1.36507-1.16687,2.24786c0.15927,2.49641,1.17819,3.05644,3.54865,2.12347
		c0.73976-0.29116,1.48904-0.5725,2.25565-0.77719C198.78156,98.03973,199.59167,97.93012,200.44055,97.76723z"/>
	<path style="fill:#333333;" d="M225.08057,102.31264c-0.51071-0.40754-1.02144-0.81508-1.54854-1.2357
		c0.0191,0.35982,0.0408,0.76862,0.0824,1.5518c-0.38046-0.77798-0.6055-1.23811-0.87703-1.79331
		c-0.09914,0.80269-0.1844,1.49314-0.30914,2.50327c-0.47769-0.55192-0.75076-0.86742-1.0461-1.20864
		c-0.07953,0.18295-0.17488,0.40223-0.31667,0.72833c-1.7025-3.22237-1.56795-6.46344-0.83076-9.75196
		c0.65968-2.94283,1.40887-5.86868,1.9561-8.832c0.18948-1.02605-0.10898-2.14221-0.18668-3.24706
		c1.10825-0.28912,2.05911-0.49806,2.98433-0.78879c1.07098-0.33652,2.16461,0.28686,2.13187,1.40542
		c-0.0309,1.05583-0.23914,2.11718-0.46732,3.15456c-0.76485,3.47735-1.68478,6.92529-2.30652,10.4269
		c-0.22501,1.26727,0.18068,2.66068,0.37958,3.98435c0.14561,0.96903,0.42354,1.91817,0.64249,2.87618
		C225.27257,102.16154,225.17657,102.23709,225.08057,102.31264z"/>
	<path style="fill:#333333;" d="M338.98743,4.78972c-0.00507,2.26-1.77301,4.02264-4.01965,4.00757
		c-2.2493-0.01508-4.02264-1.8056-4.01068-4.0495c0.01196-2.23781,1.79187-3.98528,4.05344-3.97952
		C337.30618,0.77411,338.99261,2.47943,338.98743,4.78972z M337.34756,7.06897c-0.46448-0.67587-0.92892-1.35174-1.23227-1.79312
		c0.33038-0.69066,0.76395-1.25095,0.81204-1.84259c0.02432-0.29891-0.61264-0.87312-1.01413-0.93966
		c-0.8754-0.14509-1.79144-0.04484-2.59528-0.04484c0,1.69704,0,3.23327,0,4.7695c0.11423,0.0031,0.22842,0.0062,0.34265,0.0093
		c0.06137-0.67502,0.12277-1.35003,0.18246-2.00679C335.84808,4.43519,335.7366,7.06669,337.34756,7.06897z"/>
	<path style="fill:#333333;" d="M333.83878,4.41298c0-0.52965,0-0.94374,0-1.46209c0.60886,0,1.17291-0.08622,1.68951,0.03315
		c0.29782,0.06881,0.51877,0.46993,0.77432,0.72147c-0.26471,0.23582-0.49777,0.60495-0.80133,0.67693
		C335.01877,4.49685,334.4892,4.41298,333.83878,4.41298z"/>
</g>
</svg>
